PERFORMER "Chris Liebing"
TITLE "Essential Mix (2005-10-16)"
FILE "Chris Liebing - Essential Mix (16.10.2005).mp3" MP3
  TRACK 01 AUDIO
    PERFORMER "Trentmoeller"
    TITLE "Polarshift"
    INDEX 01 00:00:00
  TRACK 02 AUDIO
    PERFORMER "Sleeparchive"
    TITLE "Dusty Galaxies"
    INDEX 01 05:59:10
  TRACK 03 AUDIO
    PERFORMER "Robert Babicz"
    TITLE "Battlestar"
    INDEX 01 09:28:25
  TRACK 04 AUDIO
    PERFORMER "Nathan Fake"
    TITLE "Coheed (Dynamo Remix)"
    INDEX 01 11:58:00
  TRACK 05 AUDIO
    PERFORMER "Joris Voorn"
    TITLE "Dec Treck"
    INDEX 01 17:41:10
  TRACK 06 AUDIO
    PERFORMER "Mathias Schaffhauser"
    TITLE "Coincidance (Trentemoller Remix)"
    INDEX 01 20:18:10
  TRACK 07 AUDIO
    PERFORMER "Depeche Mode"
    TITLE "Precious (Motor Remix)"
    INDEX 01 26:08:00
  TRACK 08 AUDIO
    PERFORMER "Adam Beyer"
    TITLE "A Walking Contradiction"
    INDEX 01 35:38:40
  TRACK 09 AUDIO
    PERFORMER "Tony Rohr"
    TITLE "Slow Burn"
    INDEX 01 43:59:10
  TRACK 10 AUDIO
    PERFORMER "Joey Beltram"
    TITLE "Intermission (Chris Liebing Remix)"
    INDEX 01 48:47:40
  TRACK 11 AUDIO
    PERFORMER "Eric Sneo"
    TITLE "Pulses"
    INDEX 01 54:34:20
  TRACK 12 AUDIO
    PERFORMER "The Advent"
    TITLE "Tresor West (Chris Liebing Remix)"
    INDEX 01 60:29:55
  TRACK 13 AUDIO
    PERFORMER "Oliver Giacomotto"
    TITLE "Split"
    INDEX 01 65:37:20
  TRACK 14 AUDIO
    PERFORMER "Chris Liebing & Ben Sims"
    TITLE "Sambal Olek"
    INDEX 01 72:18:20
  TRACK 15 AUDIO
    PERFORMER "Virgil Enzinger"
    TITLE "Personel Enemy"
    INDEX 01 77:51:00
  TRACK 16 AUDIO
    PERFORMER "Speedy J. & Chris Liebing"
    TITLE "Acid Trezcore"
    INDEX 01 82:55:00
  TRACK 17 AUDIO
    PERFORMER "Vanguard"
    TITLE "Feieralarm (Speedy J. Remix)"
    INDEX 01 84:30:00
  TRACK 18 AUDIO
    PERFORMER "Motor"
    TITLE "Sweatbox (Chris Liebing Remix)"
    INDEX 01 92:35:00
  TRACK 19 AUDIO
    PERFORMER "Speedy J. & Chris Liebing"
    TITLE "Lava"
    INDEX 01 98:04:00
  TRACK 20 AUDIO
    PERFORMER "Secret Cinema"
    TITLE "See Myself (Joris Voorn Dub Mix)"
    INDEX 01 106:29:00
  TRACK 21 AUDIO
    PERFORMER "Slam"
    TITLE "This World (Robag Wruhme Remix)"
    INDEX 01 110:43:00